<?xml version="1.0" encoding="utf-8"?>
<!-- Generator: Adobe Illustrator 27.5.0, SVG Export Plug-In . SVG Version: 6.00 Build 0)  -->
<svg version="1.1" id="Layer_1" xmlns="http://www.w3.org/2000/svg" xmlns:xlink="http://www.w3.org/1999/xlink" x="0px" y="0px"
	 viewBox="0 0 865 570.8" style="enable-background:new 0 0 865 570.8;" xml:space="preserve">
<style type="text/css">
	.st0{stroke:#000000;stroke-width:8;stroke-miterlimit:10;}
</style>
<path class="st0" d="M527.9,227.6c0,0,86.4,8.3,85-4c-6-52-11-91-32-129c-11.4-20.7-57.9-65.7-131-75c-13.3-1.7-79.8-8.8-139,35
	c-58.8,43.5-63.3,118.7-65,156c-2,43,0,114,9,152c15.6,66,23.7,101.9,49,124c50.9,44.3,121.9,46.4,160,39c35.2-6.8,90.2-17.5,129-66
	c5.7-7.2,77.5-155.7,31-176c-39-17-157.1-19.6-196-9c-11,3-7,47-5,67c2.3,23.2,91,3,121,8c12.3,2-22.6,56.9-30,65
	c-23,25-103.8,35.2-151,3c-12.1-8.3-36-93-35-155c1.6-99.1-1.8-105.7,15-126c35.2-42.6,103.8-32.5,107-32c31.7,5.1,51.4,4.2,62,42
	C523.1,186.6,513.8,205.5,527.9,227.6L527.9,227.6L527.9,227.6z"/>
<path class="st0" d="M812.9,394.6c-41.8-79.8-81-103.7-57-119c36-23,58-39,93-87c22.8-31.3,6.8-87.5-16-115
	c-20.3-24.5-44.8-34-109-48c-71.5-15.6-104-2.9-121,11c-11,9-18.3,86.9-32,223c-17.4,173-34.8,219.9-39,295c-1,18,116,15,116-2
	c0-27.2-11-80-10-119c1.6-62.3,6.8-117.6,23.5-120.5c17-3,39.5,48.5,65.5,115.5c25.7,66.2,31,123,31,123c34,16,90,18,103,0
	C860.9,551.6,852.5,470.1,812.9,394.6z M640.4,236.1c-1.5-29.5,17-145,26-149c4.1-1.8,92.5-14.5,114.5,31.5
	c7,14.6-4.8,63.6-35.5,84.5C720.4,220.1,641.4,256.4,640.4,236.1z"/>
<path class="st0" d="M4.1,437.4c-2.3,48.1,45.7,118.4,102.1,125.1c51.8,6.2,196.7,7.2,213.2-30.5c23-52.3,5.2-134.4-70-228.4
	C159.4,191.1,90.3,170.4,89,127.6c-1.9-63.8,56.4-62.3,85-65.1c33.6-3.2,75.9,43.4,75.9,98.5c0,27,55.6,16.6,65.8,10.7
	c22.7-13,9.7-53.1,7.9-71.9c-1.5-14.9-18.3-53.9-36-72.3c-17.4-18-50.9-23.5-122-22.3C46.9,7.2,5,42.2,11.3,127.8
	C15,178.9,31,194.6,142.5,313.4c54.7,58.2,90.5,103,90.3,152.6c-0.1,24.9-80,15.9-97.7,14.4c-24.2-2-32.9-61.9-32.9-61.9
	C77.6,409.5,5.2,413.6,4.1,437.4L4.1,437.4L4.1,437.4z"/>
</svg>
