<?xml version="1.0" encoding="utf-8"?>
<!-- Generator: Adobe Illustrator 27.0.1, SVG Export Plug-In . SVG Version: 6.00 Build 0)  -->
<svg version="1.1" id="Layer_1" xmlns="http://www.w3.org/2000/svg" xmlns:xlink="http://www.w3.org/1999/xlink" x="0px" y="0px"
	 viewBox="0 0 122.9 122.3" style="enable-background:new 0 0 122.9 122.3;" xml:space="preserve">
<style type="text/css">
	.st0{fill-rule:evenodd;clip-rule:evenodd;}
	.st1{fill-rule:evenodd;clip-rule:evenodd;fill:#FFFFFF;}
</style>
<path class="st0" d="M27.8,0h67.4c15.3,0,27.7,12.4,27.8,27.8v66.8c0,15.3-12.4,27.7-27.8,27.7H27.8C12.4,122.3,0,109.9,0,94.6V27.8
	C0,12.4,12.4,0,27.8,0z"/>
<path class="st1" d="M49.2,47.4h15.5v8h0.2c2.2-3.9,7.4-8,15.3-8c16.4,0,19.4,10.2,19.4,23.5v28.1H83.5V74c0-5.7-0.1-13.1-8.4-13.1
	s-9.7,6.2-9.7,12.6V99H49.2V47.4z M40,31.8c0,4.7-3.8,8.4-8.4,8.4s-8.4-3.8-8.4-8.4s3.8-8.4,8.4-8.4C36.2,23.4,40,27.1,40,31.8z
	 M23.2,47.4H40v51.5H23.2V47.4z"/>
</svg>
