<?xml version="1.0" encoding="UTF-8"?><svg id="Layer_1" xmlns="http://www.w3.org/2000/svg" width="865.02" height="570.83" viewBox="0 0 865.02 570.83"><defs><style>.cls-1{fill:#f2f2f2;}.cls-1,.cls-2{stroke:#000;stroke-miterlimit:10;stroke-width:8px;}</style></defs><path class="cls-2" d="m527.89,227.64s86.42,8.29,85-4c-6-52-11-91-32-129-11.44-20.7-57.86-65.66-131-75-13.32-1.7-79.77-8.78-139,35-58.78,43.46-63.27,118.7-65,156-2,43,0,114,9,152,15.63,66,23.68,101.94,49,124,50.85,44.3,121.86,46.39,160,39,35.21-6.82,90.17-17.47,129-66,5.73-7.16,77.48-155.74,31-176-39-17-157.11-19.61-196-9-11,3-7,47-5,67,2.32,23.21,91,3,121,8,12.3,2.05-22.56,56.91-30,65-23,25-103.81,35.18-151,3-12.11-8.26-36-93-35-155,1.6-99.12-1.82-105.68,15-126,35.25-42.57,103.78-32.52,107-32,31.68,5.1,51.39,4.25,62,42,11.23,39.96,1.93,58.81,16,81h0Z"/><g><path class="cls-2" d="m602.89,36.64c-11,9-18.34,86.89-32,223-17.36,173.01-34.83,219.93-39,295-1,18,116,15,116-2,0-27.23-11-80-10-119,1.6-62.28,6.78-117.61,23.5-120.5,17.02-2.95,39.5,48.5,65.5,115.5,25.7,66.23,31,123,31,123,34,16,90,18,103,0,0,0-8.41-81.5-48-157-41.83-79.76-81.03-103.65-57-119,36-23,58-39,93-87,22.83-31.3,6.76-87.52-16-115-20.33-24.54-44.83-34.02-109-48-71.52-15.58-104.05-2.87-121,11h0Z"/><path class="cls-1" d="m666.39,87.14c-9,4-27.5,119.5-26,149,1.03,20.22,80-16,105-33,30.73-20.9,42.51-69.85,35.5-84.5-22-46-110.41-33.32-114.5-31.5Z"/></g><path class="cls-2" d="m4.08,437.4c-2.29,48.14,45.7,118.35,102.09,125.1,51.81,6.2,196.68,7.15,213.23-30.48,23.01-52.32,5.23-134.35-69.98-228.35C159.35,191.12,90.29,170.37,88.99,127.55c-1.92-63.77,56.38-62.34,85.03-65.05,33.62-3.18,75.92,43.41,75.86,98.48-.03,27.04,55.64,16.58,65.85,10.72,22.71-13.04,9.74-53.07,7.91-71.87-1.46-14.94-18.27-53.94-36.04-72.3-17.43-18.02-50.93-23.52-122.03-22.3C46.89,7.24,5.02,42.18,11.3,127.78c3.74,51.09,19.66,66.81,131.2,185.57,54.69,58.24,90.51,103,90.27,152.61-.12,24.93-80.04,15.9-97.71,14.43-24.15-2.01-32.92-61.93-32.92-61.93-24.56-9-96.92-4.9-98.05,18.94h0Z"/></svg>